PathFileType	4	(X/Y/Z)	Patient4_TMGait_0pt4_01_right_39.trc.trc
DataRate	CameraRate	NumFrames	NumMarkers	Units	OrigDataRate	OrigDataStartFrame	OrigNumFrames
74.866310160428	74.866310160428	4	33	mm	74.866310160428	36	       141
Frame#	Time	Sacral			L.Shoulder			Chest			R.Shoulder			Neck			R.ASIS			L.ASIS			R.Thigh.Superior			R.Thigh.Lateral			R.Thigh.Inferior			R.Patella			L.Thigh.Superior			L.Thigh.Lateral			L.Thigh.Inferior			L.Patella			L.Shank.Superior			L.Shank.Lateral			L.Shank.Inferior			R.Shank.Superior			R.Shank.Lateral			R.Shank.Inferior			R.Heel			R.Midfoot.Superior			R.Midfoot.Lateral			R.Toe			L.Heel			L.Midfoot.Lateral			L.Midfoot.Superior			L.Toe			L.Elbow			L.Wrist			R.Elbow			R.Wrist			
		X1	Y1	Z1	X2	Y2	Z2	X3	Y3	Z3	X4	Y4	Z4	X5	Y5	Z5	X6	Y6	Z6	X7	Y7	Z7	X8	Y8	Z8	X9	Y9	Z9	X10	Y10	Z10	X11	Y11	Z11	X12	Y12	Z12	X13	Y13	Z13	X14	Y14	Z14	X15	Y15	Z15	X16	Y16	Z16	X17	Y17	Z17	X18	Y18	Z18	X19	Y19	Z19	X20	Y20	Z20	X21	Y21	Z21	X22	Y22	Z22	X23	Y23	Z23	X24	Y24	Z24	X25	Y25	Z25	X26	Y26	Z26	X27	Y27	Z27	X28	Y28	Z28	X29	Y29	Z29	X30	Y30	Z30	X31	Y31	Z31	X32	Y32	Z32	X33	Y33	Z33	

36	51.327500000000	873.204927400539	998.426156157228	471.275717455934	1047.189590598406	1431.031311723676	286.720689285680	1140.259619842988	1371.532847421586	456.458929257178	1040.072497064079	1444.773981033090	621.660683843513	1021.220819199536	1495.439906636788	440.512469001086	1102.543908437633	942.720030823641	596.009848269277	1096.530035334734	969.518725576823	321.303789902423	1163.167167121307	747.933112978727	559.588972520025	1093.839429583303	631.391956359613	621.258190313524	1175.761611185016	586.521296444372	539.901959547481	1186.105829093034	496.660551439819	547.389317624974	1118.519291618170	740.956606013942	337.866147002395	1015.655758284511	635.426462140511	271.401682425631	1093.230811827029	544.453224187631	325.709139078126	1082.381253615172	465.160289553042	323.898163572349	1025.715771259264	405.218629402576	317.913788509102	896.532720406171	335.093498221663	269.588843984422	908.538795271274	206.468172098831	328.324786230031	1156.515040064102	406.658893049722	555.482606201223	1086.624231931224	302.949021403752	618.673144014633	1128.555238950849	207.623014994383	556.520054795661	996.879440088053	43.199787534371	528.193911927988	1167.231148721561	97.635442451656	565.820234379562	1079.216421057537	37.434736374638	604.533053903757	1287.378017383045	45.487690616010	596.199550163095	737.629172784250	93.850423953477	366.742284512726	807.638133983777	63.988779819770	290.052429879890	903.498899746655	105.925125460073	312.491598515659	1012.513274594630	35.701026849638	292.803102720124	1062.888390910769	1082.301747436571	160.631709898286	1281.015338401669	937.728428581238	153.166497021346	960.126598082951	1111.703377504954	749.195716717330	1049.292526582713	865.914003071932	758.087135209218	
37	51.340857142857	873.760399430369	999.144321005522	475.437977609606	1046.817934158375	1431.808676301768	290.206521468902	1141.093856948947	1372.141996317346	459.268532466368	1042.024809703703	1445.288202688353	625.144176645219	1021.528079921127	1496.006239613167	444.206575801499	1103.737812094764	943.207026522533	598.928598095757	1095.743180225339	969.892908657626	324.565316447964	1162.311401994650	747.316636041196	563.469055293746	1091.004760604214	631.419251910915	624.207064069349	1173.040544393586	585.956838982352	543.354856811297	1182.219305226305	496.163461056285	550.315780431161	1122.726662548512	742.716991856677	340.658990330884	1023.587389367468	635.125343866260	273.212445751635	1103.896273735058	545.507302128127	327.058934907092	1093.912891898775	464.934787453485	324.244961877203	1034.927218449298	405.284567502485	318.569800086396	903.421596114866	339.721087546882	270.262110495981	911.501173178280	210.717943752259	328.302384078382	1152.379144051304	406.346111415447	557.866206787808	1081.949834466439	302.593495573889	620.395760600753	1123.777313290808	207.458014181674	557.743552260403	991.571816523134	43.216327354110	528.359946978313	1162.012415206926	97.535483378699	566.222980762164	1073.885895528339	37.393167316948	604.729205123041	1282.113209124678	45.158337435581	596.399371622481	736.504523380619	105.632831268851	366.203236689234	805.074425575276	72.038729089170	289.764428038048	902.808166245883	109.459274362299	312.004245136672	1007.416591667714	34.928879618033	293.034491982043	1060.098145502374	1082.515824166848	165.234284536776	1274.405907986875	932.034907986054	156.177122786633	968.037224316000	1111.155963124929	754.532659907422	1068.274994985024	869.786385079890	761.058871502170	
38	51.354214285714	874.098848764408	999.743417062622	479.593053146608	1046.215342835062	1432.440085406695	293.614764403938	1141.847361448683	1372.550161606962	461.890357770544	1044.116112429324	1445.606151908600	628.568966596349	1021.799162921829	1496.428976227823	447.858279225154	1104.752190297060	943.569931816184	601.639337597564	1094.644671153268	969.975160391716	327.604830250237	1161.209086918562	746.635416491282	567.268535026168	1088.043331423324	631.428414703101	627.140577806440	1170.153131534344	585.385373029890	546.767909716917	1178.186516442367	495.661381400807	553.306940707358	1126.990012969859	744.639239527350	343.342711387062	1031.935566727153	634.952505484979	274.854192111016	1114.998894993469	546.909599875734	328.352157664927	1106.029175098269	465.113387557396	324.708163029959	1044.879330670919	405.605942680628	319.284426675515	911.216991946579	344.680822836006	270.911683651460	915.190627745445	215.509463695687	328.477645123417	1148.112621917992	406.026102098332	560.316037022416	1077.124462931278	302.224100018496	622.177320582498	1118.916351971166	207.294272450524	559.038777124926	986.190223076552	43.219625025434	528.538332410663	1156.745260606291	97.417785866504	566.647814201334	1068.488483583509	37.335074207329	604.933133589834	1276.784150384794	44.801667215619	596.589941685420	736.247315880763	118.378187645490	365.913423926961	803.206631246814	81.196997220532	289.627017188896	902.733697366516	113.769296047990	311.756266542568	1002.680222048217	34.200905774163	293.223214171167	1057.048747490309	1082.539990203246	169.897656825765	1267.068540460165	925.861225240299	159.084116876851	976.296539602082	1110.544058945705	759.896003018271	1087.399111262109	874.120231911819	763.937225876543	
39	51.367571428571	874.217393180117	1000.226991265814	483.689668739430	1045.407717336640	1432.936442972884	296.927106931886	1142.518182610441	1372.753852905141	464.312267449045	1046.333506041121	1445.724766088306	631.913526646176	1022.051071162388	1496.719804830386	451.448444451322	1105.570235186853	943.824851019055	604.127465969732	1093.263526216145	969.774756964546	330.391928186921	1159.894064466597	745.940883917222	570.874807453562	1085.061185817768	631.440146447359	630.006839931141	1167.152316257356	584.831259069584	550.044303271037	1174.070118766295	495.171128785842	556.281385869001	1131.183777719237	746.747824635356	345.889741183103	1040.485963769314	635.010711756617	276.305578142354	1126.261416010151	548.735202570695	329.556368078800	1118.472288573899	465.788257490242	325.231065596747	1055.356360323840	406.263315156449	320.009840784244	919.716678739360	349.912715462285	271.561724070439	919.568612818177	220.750095458215	328.850011548210	1143.779973433956	405.709899920148	562.763050958756	1072.223098314689	301.862143182172	623.973782109429	1114.014539521569	207.140896814516	560.365020434892	980.763886966007	43.217985550259	528.731636107530	1151.457134697649	97.300259580767	567.084514208318	1063.056558448168	37.271898628429	605.142179197202	1271.418671646680	44.441405879063	596.770013155355	736.968463372972	131.651256473836	365.961865338267	802.194493994085	91.178474732003	289.688971996884	903.370077449427	118.781007268608	311.751203010599	998.585442788830	33.620267567268	293.294429100447	1053.734851008590	1082.386669078466	174.596804396010	1258.968721226097	919.267688164212	161.893144259538	984.953765260545	1109.842694796415	765.213691307839	1106.583994884696	878.839601569668	766.669134632045	
